<svg xmlns="http://www.w3.org/2000/svg" width="28" height="30" viewBox="0 0 28 30" fill="none">
  <g filter="url(#filter0_d_9_160)">
    <path d="M18.5 12C18.5 10.8065 18.0259 9.66193 17.182 8.81802C16.3381 7.97411 15.1935 7.5 14 7.5C12.8065 7.5 11.6619 7.97411 10.818 8.81802C9.97411 9.66193 9.5 10.8065 9.5 12C9.5 17.25 7.25 18.75 7.25 18.75H20.75C20.75 18.75 18.5 17.25 18.5 12Z" stroke="#35D5C7" stroke-width="1.5" stroke-linecap="round" stroke-linejoin="round"/>
    <path d="M15.2975 21.75C15.1657 21.9773 14.9764 22.166 14.7487 22.2971C14.521 22.4283 14.2628 22.4973 14 22.4973C13.7372 22.4973 13.4791 22.4283 13.2513 22.2971C13.0236 22.166 12.8344 21.9773 12.7025 21.75" stroke="#35D5C7" stroke-width="1.5" stroke-linecap="round" stroke-linejoin="round"/>
  </g>
  <defs>
    <filter id="filter0_d_9_160" x="-1" y="0" width="30" height="30" filterUnits="userSpaceOnUse" color-interpolation-filters="sRGB">
      <feFlood flood-opacity="0" result="BackgroundImageFix"/>
      <feColorMatrix in="SourceAlpha" type="matrix" values="0 0 0 0 0 0 0 0 0 0 0 0 0 0 0 0 0 0 127 0" result="hardAlpha"/>
      <feOffset/>
      <feGaussianBlur stdDeviation="3"/>
      <feColorMatrix type="matrix" values="0 0 0 0 0 0 0 0 0 0 0 0 0 0 0 0 0 0 0.26 0"/>
      <feBlend mode="normal" in2="BackgroundImageFix" result="effect1_dropShadow_9_160"/>
      <feBlend mode="normal" in="SourceGraphic" in2="effect1_dropShadow_9_160" result="shape"/>
    </filter>
  </defs>
</svg>